<?xml version="1.0" encoding="iso-8859-1"?>
<!-- Generator: Adobe Illustrator 19.0.0, SVG Export Plug-In . SVG Version: 6.00 Build 0)  -->
<svg xmlns="http://www.w3.org/2000/svg" xmlns:xlink="http://www.w3.org/1999/xlink" version="1.1" id="Layer_1" x="0px" y="0px" viewBox="0 0 512 512" style="enable-background:new 0 0 512 512;" xml:space="preserve">
<circle style="fill:#FF3D62;" cx="255.996" cy="255.996" r="255.996"/>
<path style="fill:#C2001B;" d="M512,255.999c0-20.939-2.533-41.285-7.276-60.765l-78.712-78.712  c-4.659-6.61-10.436-10.906-10.436-10.906c-2.756-2.161-5.73-4.054-8.887-5.64l-24.566-19.047c-0.027-3.162-0.057-6.104-0.094-8.34  c-0.036-2.207-1.835-3.971-4.043-3.971H134.013c-2.208,0-4.007,1.764-4.043,3.971c-0.087,5.419-0.147,14.957-0.18,21.819  c-0.298-0.005-0.592-0.023-0.892-0.023c-29.079,0-52.736,23.657-52.736,52.736c0,17.676,8.75,33.336,22.137,42.91l135.42,135.42  c0.162,0.226,0.483,43.855,0.483,43.855h-52.189v98.632l42.086,42.086c10.452,1.3,21.097,1.977,31.901,1.977  C397.385,512,512,397.385,512,255.999z"/>
<path style="fill:#FFDF47;" d="M383.101,94.384c-0.299,0-0.594,0.018-0.891,0.023c-0.032-6.862-0.093-16.4-0.18-21.819  c-0.036-2.207-1.835-3.971-4.043-3.971H134.013c-2.208,0-4.007,1.764-4.043,3.971c-0.087,5.419-0.147,14.957-0.18,21.819  c-0.298-0.005-0.592-0.023-0.892-0.023c-29.079,0-52.736,23.657-52.736,52.736s23.657,52.736,52.736,52.736  c10.125,0,19.588-2.874,27.629-7.84c18.937,23.544,46.448,39.941,77.675,44.331v133.814h43.598V236.348  c31.227-4.391,58.734-20.786,77.67-44.333c8.041,4.967,17.506,7.843,27.632,7.843c29.08,0,52.737-23.657,52.737-52.736  S412.18,94.384,383.101,94.384z M128.899,178.446c-17.273,0-31.325-14.052-31.325-31.325s14.053-31.325,31.325-31.325  c0.289,0,0.576,0.014,0.863,0.022v0.419c0,20.959,5.387,40.72,14.847,57.967C139.986,176.896,134.622,178.446,128.899,178.446z   M383.101,178.446c-5.724,0-11.088-1.551-15.711-4.242c9.458-17.248,14.848-37.008,14.848-57.966v-0.419  c0.287-0.008,0.574-0.022,0.863-0.022c17.273,0,31.325,14.052,31.325,31.325C414.426,164.395,400.374,178.446,383.101,178.446z"/>
<path style="fill:#FEC000;" d="M383.101,94.384c-0.299,0-0.594,0.018-0.891,0.023c-0.032-6.862-0.093-16.4-0.18-21.819  c-0.036-2.207-1.835-3.971-4.043-3.971H254.837v301.545h22.962V236.348c31.227-4.391,58.734-20.786,77.67-44.333  c8.041,4.967,17.506,7.843,27.632,7.843c29.08,0,52.737-23.657,52.737-52.736S412.18,94.384,383.101,94.384z M383.101,178.446  c-5.724,0-11.088-1.551-15.711-4.242c9.458-17.248,14.848-37.008,14.848-57.966v-0.419c0.287-0.008,0.574-0.022,0.863-0.022  c17.273,0,31.325,14.052,31.325,31.325C414.426,164.395,400.374,178.446,383.101,178.446z"/>
<rect x="182.008" y="369.303" style="fill:#2A2A2C;" width="147.976" height="98.627"/>
<rect x="255.996" y="369.303" style="fill:#171719;" width="73.988" height="98.627"/>
<circle style="fill:#E1E1E3;" cx="340.287" cy="113.547" r="21.753"/>
<g>
</g>
<g>
</g>
<g>
</g>
<g>
</g>
<g>
</g>
<g>
</g>
<g>
</g>
<g>
</g>
<g>
</g>
<g>
</g>
<g>
</g>
<g>
</g>
<g>
</g>
<g>
</g>
<g>
</g>
</svg>
